#!OML:ASF H:\GeneralSubjects\Female5\Project 1\Capture day 1\Session 1\Female5.ASF
:FULLY-SPECIFIED
:DEGREES
178
root -22.0571 15.8643 6.4986 -171.829 -18.7247 -174.751
lowerback 8.00211 1.08971 2.2478
upperback -8.71496 1.73593 4.87954
thorax -14.2241 0.643616 3.88942
lowerneck -12.5527 -3.64789 -5.46142
upperneck 26.4053 -7.77022 8.07174
head 11.1351 -3.73124 2.70773
rclavicle 4.42296e-014 1.43125e-014
rhumerus -27.0371 -24.5418 -4.11951
rradius 130.574
rwrist 14.5346
rhand -46.7148 -9.5213
rfingers 7.12502
rthumb -19.4331 -38.5702
lclavicle 4.42296e-014 1.43125e-014
lhumerus -15.519 25.1403 24.7199
lradius 137.35
lwrist -35.9522
lhand -46.0959 69.2639
lfingers 7.12502
lthumb -18.838 -98.3717
rfemur 5.64786 41.9706 40.5263
rtibia -10.1934
rfoot -51.4901 -40.4552
rtoes 26.8351
lfemur -13.316 -20.3924 -2.4908
ltibia 13.9507
lfoot -20.012 19.2281
ltoes -67.8956
179
root -22.0485 15.8699 6.51176 -171.629 -18.8347 -174.872
lowerback 8.095 1.08684 2.18552
upperback -8.70852 1.73251 4.87963
thorax -14.2776 0.650709 3.92588
lowerneck -12.9294 -3.80303 -5.94041
upperneck 26.143 -7.94959 8.63858
head 11.1739 -3.76888 2.965
rclavicle 3.6477e-014 2.54444e-014
rhumerus -26.9049 -24.592 -4.0584
rradius 130.476
rwrist 14.4179
rhand -46.6712 -9.44653
rfingers 7.12502
rthumb -19.3911 -38.4997
lclavicle 3.6477e-014 2.54444e-014
lhumerus -15.5339 25.3569 24.6686
lradius 137.298
lwrist -35.8239
lhand -46.2032 68.9858
lfingers 7.12502
lthumb -18.9411 -98.0835
rfemur 5.45257 41.8387 40.3161
rtibia -10.3513
rfoot -51.263 -40.5952
rtoes 26.8357
lfemur -13.6345 -20.4495 -2.50265
ltibia 13.9455
lfoot -19.8091 19.3273
ltoes -67.9432
180
root -22.0391 15.8737 6.52352 -171.435 -18.9631 -174.976
lowerback 8.1673 1.08209 2.12954
upperback -8.68433 1.72616 4.8505
thorax -14.2946 0.655192 3.92474
lowerneck -13.3419 -3.936 -6.25296
upperneck 25.9156 -8.14243 9.19581
head 11.2297 -3.79846 3.18758
rclavicle 1.68967e-015 -6.2816e-014
rhumerus -26.8425 -24.6926 -3.94431
rradius 130.385
rwrist 14.2443
rhand -46.6339 -9.13378
rfingers 7.12502
rthumb -19.3553 -38.1905
lclavicle 1.68967e-015 -6.2816e-014
lhumerus -15.4413 25.5258 24.6259
lradius 137.27
lwrist -35.6916
lhand -46.3377 68.7161
lfingers 7.12502
lthumb -19.0705 -97.8011
rfemur 5.27049 41.686 40.1187
rtibia -10.5403
rfoot -51.0085 -40.7619
rtoes 26.8062
lfemur -13.9358 -20.5032 -2.48452
ltibia 13.9046
lfoot -19.611 19.3708
ltoes -68.0205
181
root -22.0282 15.876 6.53517 -171.256 -19.104 -175.064
lowerback 8.24825 1.08603 2.07041
upperback -8.64034 1.7323 4.7913
thorax -14.2925 0.665696 3.88749
lowerneck -13.7952 -4.06875 -6.3225
upperneck 25.7135 -8.35634 9.60987
head 11.2904 -3.82907 3.31161
rclavicle -4.37326e-014 7.95139e-015
rhumerus -26.8682 -24.848 -3.80253
rradius 130.31
rwrist 14.0725
rhand -46.6067 -8.55709
rfingers 7.12502
rthumb -19.3291 -37.6164
lclavicle -4.37326e-014 7.95139e-015
lhumerus -15.228 25.6144 24.5845
lradius 137.278
lwrist -35.572
lhand -46.4599 68.5443
lfingers 7.12502
lthumb -19.188 -97.6177
rfemur 5.09582 41.5172 39.9294
rtibia -10.7484
rfoot -50.7505 -40.9231
rtoes 26.734
lfemur -14.225 -20.5497 -2.43715
ltibia 13.8431
lfoot -19.4129 19.3755
ltoes -68.0951
182
root -22.0157 15.8771 6.54763 -171.092 -19.2548 -175.141
lowerback 8.35271 1.10053 1.99525
upperback -8.57633 1.753 4.71378
thorax -14.2819 0.685151 3.83449
lowerneck -14.2408 -4.21223 -6.24592
upperneck 25.503 -8.598 9.93095
head 11.3395 -3.86945 3.37122
rclavicle 1.49089e-014 1.43125e-014
rhumerus -26.9683 -25.0377 -3.69884
rradius 130.265
rwrist 14.0001
rhand -46.6019 -7.80624
rfingers 7.12502
rthumb -19.3245 -36.8661
lclavicle 1.49089e-014 1.43125e-014
lhumerus -14.9147 25.6056 24.5724
lradius 137.312
lwrist -35.5192
lhand -46.563 68.5244
lfingers 7.12502
lthumb -19.2871 -97.588
rfemur 4.91652 41.3361 39.742
rtibia -10.9557
rfoot -50.5144 -41.0472
rtoes 26.6785
lfemur -14.5057 -20.6171 -2.36571
ltibia 13.7655
lfoot -19.2311 19.3823
ltoes -68.13
183
root -22.0016 15.8774 6.56122 -170.946 -19.4161 -175.195
lowerback 8.48009 1.12124 1.91286
upperback -8.49589 1.7835 4.63493
thorax -14.2669 0.710706 3.78133
lowerneck -14.6348 -4.3716 -6.08608
upperneck 25.2629 -8.86049 10.1676
head 11.3617 -3.92338 3.38162
rclavicle 4.78574e-014 -7.07673e-014
rhumerus -27.0896 -25.2351 -3.66395
rradius 130.231
rwrist 14.0655
rhand -46.6234 -6.98074
rfingers 7.12502
rthumb -19.3452 -36.0385
lclavicle 4.78574e-014 -7.07673e-014
lhumerus -14.511 25.5692 24.4939
lradius 137.304
lwrist -35.4591
lhand -46.626 68.6491
lfingers 7.12502
lthumb -19.3477 -97.7066
rfemur 4.71359 41.1466 39.5646
rtibia -11.1356
rfoot -50.3363 -41.1254
rtoes 26.6061
lfemur -14.7825 -20.7122 -2.25608
ltibia 13.6725
lfoot -19.0762 19.4098
ltoes -68.1068
184
root -21.9861 15.8777 6.5758 -170.818 -19.5923 -175.199
lowerback 8.61837 1.13128 1.83645
upperback -8.4079 1.80221 4.59154
thorax -14.2509 0.73158 3.7672
lowerneck -14.9462 -4.52432 -5.91727
upperneck 25.0097 -9.09726 10.327
head 11.355 -3.97763 3.36643
rclavicle 1.14301e-014 -6.36111e-014
rhumerus -27.1577 -25.4136 -3.68453
rradius 130.224
rwrist 14.2101
rhand -46.6455 -6.17853
rfingers 7.12502
rthumb -19.3664 -35.2341
lclavicle 1.14301e-014 -6.36111e-014
lhumerus -14.1298 25.5145 24.384
lradius 137.267
lwrist -35.4673
lhand -46.6582 68.8754
lfingers 7.12502
lthumb -19.3787 -97.9298
rfemur 4.46676 40.9507 39.4174
rtibia -11.2683
rfoot -50.2356 -41.1698
rtoes 26.4925
lfemur -15.0698 -20.8009 -2.07644
ltibia 13.5699
lfoot -18.9408 19.4357
ltoes -68.0604
185
root -21.97 15.8788 6.59083 -170.695 -19.785 -175.15
lowerback 8.74686 1.11293 1.76534
upperback -8.33322 1.78337 4.61373
thorax -14.2459 0.735904 3.83312
lowerneck -15.0981 -4.64375 -5.86348
upperneck 24.7582 -9.26362 10.4715
head 11.314 -4.02106 3.37893
rclavicle 2.99171e-014 4.13472e-014
rhumerus -27.0754 -25.5251 -3.77536
rradius 130.243
rwrist 14.3862
rhand -46.6509 -5.47443
rfingers 7.12502
rthumb -19.3716 -34.5295
lclavicle 2.99171e-014 4.13472e-014
lhumerus -13.8864 25.4762 24.2105
lradius 137.201
lwrist -35.5201
lhand -46.6759 69.0973
lfingers 7.12502
lthumb -19.3957 -98.1499
rfemur 4.16522 40.7505 39.2991
rtibia -11.3558
rfoot -50.1843 -41.2093
rtoes 26.3098
lfemur -15.3747 -20.8785 -1.82148
ltibia 13.4542
lfoot -18.8393 19.4461
ltoes -68.0309
186
root -21.9539 15.8808 6.60584 -170.562 -19.9923 -175.06
lowerback 8.84828 1.07274 1.71195
upperback -8.30671 1.73369 4.68018
thorax -14.2812 0.723493 3.9485
lowerneck -14.9627 -4.71053 -5.99527
upperneck 24.4937 -9.35751 10.7101
head 11.2173 -4.05556 3.47387
rclavicle -5.17834e-014 -3.73715e-014
rhumerus -26.8924 -25.5105 -3.88401
rradius 130.286
rwrist 14.529
rhand -46.6618 -4.98968
rfingers 7.12502
rthumb -19.3821 -34.0437
lclavicle -5.17834e-014 -3.73715e-014
lhumerus -13.8031 25.4038 23.9815
lradius 137.129
lwrist -35.5743
lhand -46.7011 69.2489
lfingers 7.12502
lthumb -19.4199 -98.2991
rfemur 3.81575 40.5481 39.1968
rtibia -11.4262
rfoot -50.1297 -41.2887
rtoes 25.9391
lfemur -15.7025 -20.961 -1.50589
ltibia 13.3217
lfoot -18.7838 19.4418
ltoes -68.0211
187
root -21.9378 15.8836 6.62048 -170.408 -20.2124 -174.949
lowerback 8.91597 1.01175 1.65674
upperback -8.31514 1.65229 4.7856
thorax -14.3367 0.696401 4.11801
lowerneck -14.6737 -4.72556 -6.29329
upperneck 24.2692 -9.38105 11.0317
head 11.1108 -4.07413 3.64188
rclavicle 1.59028e-014 -5.80451e-014
rhumerus -26.6086 -25.4139 -3.96511
rradius 130.332
rwrist 14.5803
rhand -46.6697 -4.67697
rfingers 7.12502
rthumb -19.3898 -33.7303
lclavicle 1.59028e-014 -5.80451e-014
lhumerus -13.8917 25.3118 23.7468
lradius 137.098
lwrist -35.6126
lhand -46.7456 69.2877
lfingers 7.12502
lthumb -19.4627 -98.3336
rfemur 3.4396 40.3418 39.0967
rtibia -11.514
rfoot -50.0291 -41.418
rtoes 25.3992
lfemur -16.0618 -21.0529 -1.15347
ltibia 13.1812
lfoot -18.7412 19.447
ltoes -68.0324
188
root -21.922 15.8865 6.6345 -170.226 -20.4387 -174.849
lowerback 8.95712 0.960412 1.60907
upperback -8.36494 1.57995 4.87039
thorax -14.424 0.670619 4.26054
lowerneck -14.2664 -4.71944 -6.64795
upperneck 24.0922 -9.39188 11.3773
head 11.0012 -4.09787 3.83276
rclavicle -1.49089e-014 1.66979e-014
rhumerus -26.3887 -25.258 -3.93687
rradius 130.378
rwrist 14.5264
rhand -46.6253 -4.49555
rfingers 7.12502
rthumb -19.3471 -33.5531
lclavicle -1.49089e-014 1.66979e-014
lhumerus -14.0329 25.1197 23.5989
lradius 137.13
lwrist -35.6434
lhand -46.8257 69.2442
lfingers 7.12502
lthumb -19.5397 -98.2824
rfemur 3.06408 40.1312 38.9798
rtibia -11.6448
rfoot -49.871 -41.5733
rtoes 24.8263
lfemur -16.4512 -21.1533 -0.803045
ltibia 13.0437
lfoot -18.6608 19.5004
ltoes -68.0523
189
root -21.9066 15.889 6.64769 -170.012 -20.66 -174.792
lowerback 8.9764 0.936747 1.55691
upperback -8.43041 1.54033 4.90124
thorax -14.5157 0.658144 4.33809
lowerneck -13.8627 -4.71639 -6.95616
upperneck 23.9585 -9.41763 11.679
head 10.9057 -4.12959 3.99769
rclavicle -1.61016e-014 -2.62396e-014
rhumerus -26.2957 -25.1064 -3.77789
rradius 130.411
rwrist 14.3969
rhand -46.5388 -4.67753
rfingers 7.12502
rthumb -19.2638 -33.7434
lclavicle -1.61016e-014 -2.62396e-014
lhumerus -14.1217 24.8351 23.5931
lradius 137.208
lwrist -35.6774
lhand -46.9245 69.2004
lfingers 7.12502
lthumb -19.6347 -98.2289
rfemur 2.70948 39.9215 38.829
rtibia -11.8183
rfoot -49.689 -41.7087
rtoes 24.3638
lfemur -16.8584 -21.2549 -0.49797
ltibia 12.915
lfoot -18.525 19.6033
ltoes -68.0519
190
root -21.8917 15.8906 6.66002 -169.774 -20.8684 -174.792
lowerback 8.98151 0.952149 1.50577
upperback -8.48868 1.55067 4.85185
thorax -14.5891 0.665998 4.31207
lowerneck -13.5296 -4.73857 -7.21205
upperneck 23.8542 -9.49529 11.9789
head 10.8392 -4.17773 4.14433
rclavicle 1.93815e-015 -9.78021e-014
rhumerus -26.3956 -24.9994 -3.51552
rradius 130.454
rwrist 14.2429
rhand -46.4533 -5.31222
rfingers 7.12502
rthumb -19.1817 -34.3863
lclavicle 1.93815e-015 -9.78021e-014
lhumerus -14.0783 24.482 23.7563
lradius 137.308
lwrist -35.7359
lhand -47.0311 69.1979
lfingers 7.12502
lthumb -19.7372 -98.2159
rfemur 2.38423 39.717 38.6418
rtibia -12.0084
rfoot -49.5463 -41.7515
rtoes 24.1778
lfemur -17.2667 -21.3567 -0.264177
ltibia 12.799
lfoot -18.3445 19.7408
ltoes -68.0228
